<svg xmlns="http://www.w3.org/2000/svg" viewBox="0 0 241.37 197.68"><title>Asset 1</title><g id="Layer_2" data-name="Layer 2"><g id="Layer_1-2" data-name="Layer 1"><path d="M240.63,111.31c2.53,14.87-1.69,27.94-8.75,40.43C220.75,171.41,204,184,182.81,191.1c-20.41,6.86-41.12,8.93-62.19,3.45-16.86-4.38-32-11.82-43.38-25.57-7.64-9.24-12.9-19.74-16.78-31-.24-.71-.47-1.43-.73-2.13-.14-.38-.33-.75-.64-1.42l-4.57.94c-6.86,1.4-13.71,2.84-20.58,4.16a3,3,0,0,0-2.78,2.79,34.88,34.88,0,0,1-2.81,9c-2.9,5.74-8,6.59-13,2.45-4.34-3.6-7.07-8.37-9.21-13.47C1.25,128.64-1.12,116.54.51,103.93A32.43,32.43,0,0,1,3.75,93.55c2.62-5.11,7.44-6.08,11.9-2.43,2.65,2.16,4.68,5.11,6.82,7.84.82,1.06,1.45,1.51,2.84,1.22,8.31-1.77,16.64-3.49,25-5.1,1.74-.33,2-1.12,2-2.71-.27-14.51,1.9-28.58,8.3-41.74,9.76-20.07,25.24-34.17,45.91-42.3C126.39.49,147-2.21,168.23,1.93s37.24,15.93,49.76,33c8.1,11,13.13,23.5,16.2,36.77,1.78,7.71,3.32,15.48,5.1,23.19.5,2.17-.13,2.84-2.25,3.27q-59.65,12.09-119.28,24.34l-3.48.71c3.66,10.92,9.29,19.87,20.34,24,13.08,4.85,25.78,3,37.73-3.72,7.07-4,10.92-10.59,12.94-18.26a3.94,3.94,0,0,1,3.55-3.36c16.43-3.26,32.83-6.66,49.23-10ZM186.74,77.25c-1.22.26-2.27.47-3.32.68L65.88,102c-2.94.6-5.86,1.26-8.8,1.86-13.55,2.75-27.11,5.48-40.65,8.29a2.36,2.36,0,0,0-1.58,1.49c-.91,6-.31,11.62,3.73,16.51a4.13,4.13,0,0,0,4.55,1.59c15.81-3.32,31.65-6.51,47.49-9.74l40.16-8.19L225.39,90.34c.87-.17,1.72-.42,2.42-.6-.94-4.6-1.78-8.93-2.72-13.23-2.51-11.56-6.38-22.6-13-32.51-11.73-17.62-27.44-29.43-48.77-32.88C148,8.64,133,10.5,118.18,14.73A78.22,78.22,0,0,0,92.32,27.4c-19.56,14.79-29.22,34.67-30.08,59-.07,2,0,3.94,0,6.21l3-.61L92.65,86.4c5-1,5-1,5.46-6.24,1.11-12.39,5.15-23.44,15.2-31.45,8-6.33,17.34-9.18,27.33-9.82C165.89,37.25,182.44,53,186.74,77.25Zm44.49,46.37a9.46,9.46,0,0,0-1.16.1c-11.51,2.34-23,4.66-34.51,7.12a3.84,3.84,0,0,0-2.27,2.12,40.52,40.52,0,0,1-9.12,13.87c-7.61,7.41-17.1,10.66-27.32,12.3-20.75,3.35-38.92-5.32-48-23.39a11.25,11.25,0,0,0-8.39-6.57,36.21,36.21,0,0,0-8.39-.93c-7.88.34-14.64,3.1-18.82,10.27a4.53,4.53,0,0,0-.52,3.46C78.25,155.18,86,166.75,98.4,174.52a87.38,87.38,0,0,0,39.47,12.89c13.83,1.21,27.25-1.11,40.36-5.25C200.86,175,217.55,161,227.15,139A44,44,0,0,0,231.23,123.62Zm-57-54c-3-8.19-8-14.25-15.72-17.85-9.4-4.35-18.95-3.71-28.52-.7-7.5,2.36-13.58,6.59-17.41,13.67a40.32,40.32,0,0,0-4.67,18.44Z" style="fill:#fff"/></g></g></svg>